<?xml version="1.0" encoding="utf-8"?>
<!-- Svg Vector Icons : http://www.onlinewebfonts.com/icon -->
<!DOCTYPE svg PUBLIC "-//W3C//DTD SVG 1.1//EN" "http://www.w3.org/Graphics/SVG/1.1/DTD/svg11.dtd">
<svg version="1.1" xmlns="http://www.w3.org/2000/svg" xmlns:xlink="http://www.w3.org/1999/xlink" x="0px" y="0px" viewBox="0 0 1000 1000" enable-background="new 0 0 1000 1000" xml:space="preserve">
<metadata> Svg Vector Icons : http://www.onlinewebfonts.com/icon </metadata>
<g><g transform="translate(0.000000,512.000000) scale(0.100000,-0.100000)"><path d="M3509.4,4995.2c-283.5-74.7-302.7-101.5-940.6-1222.3c-298.9-524.9-557.5-988.5-574.7-1028.8l-30.7-74.7h-459.8c-252.9,0-530.7-7.7-618.8-19.2c-400.4-46-701.2-329.5-772.1-731.8C30.3,1460.7,357.9,993.2,821.5,907c141.8-26.8,8214.8-26.8,8356.6,0c459.8,84.3,787.4,547.9,710.8,1005.8c-65.1,390.8-367.8,687.8-752.9,737.6c-76.6,9.6-356.3,19.2-620.7,19.2h-478.9l-30.6,74.7c-17.2,40.2-275.9,503.9-574.7,1028.8c-601.6,1057.5-643.7,1116.9-854.4,1195.4c-168.6,63.2-302.7,70.9-457.9,21.1c-285.5-88.1-467.5-312.3-498.1-611.1c-21.1-201.2,15.3-291.2,433-1017.3c210.7-369.8,383.2-676.3,383.2-682c0-5.7-645.6-9.6-1436.8-9.6c-789.3,0-1436.8,3.8-1436.8,9.6c0,5.7,157.1,283.5,348.7,618.8c461.7,806.5,465.5,814.2,465.5,1019.2c0,136-9.6,180.1-53.6,274c-101.5,222.2-247.1,348.7-463.6,406.1C3722,5031.6,3643.5,5031.6,3509.4,4995.2z" fill="#8f8f8f" /><path d="M825.4,453c0-40.2,67.1-1231.8,147.5-2649.5l147.5-2576.7l3873.7-5.7l3875.6-3.8l7.7,42.2c5.7,24.9,40.2,605.4,78.5,1289.3c36.4,685.8,101.5,1841,143.7,2567.1c42.1,728,76.6,1341,76.6,1365.9v42.1H4999.8H823.5L825.4,453z M2997.8-895.7c99.6-28.7,210.7-141.8,237.6-243.3c15.3-55.6,21.1-415.7,17.2-1206.9l-5.7-1126.5l-51.7-78.6c-72.8-111.1-168.6-164.7-291.2-164.7c-149.4,0-285.4,92-335.3,222.2c-13.4,36.4-21.1,434.9-21.1,1191.6s7.7,1155.2,21.1,1191.6c28.7,76.6,109.2,157.1,199.2,199.2C2858-868.9,2894.4-867,2997.8-895.7z M5195.2-941.7c40.2-26.8,90-82.4,111.1-124.5c36.4-72.8,38.3-109.2,38.3-1237.6v-1162.9l-46-78.6c-132.2-226.1-465.5-226.1-597.7,0l-46,78.6v1162.9c0,1120.7,1.9,1164.8,38.3,1237.6C4785.3-884.2,5020.9-826.7,5195.2-941.7z M7231.7-911c90-42.2,170.5-122.6,199.2-199.2c13.4-36.4,21.1-434.9,21.1-1193.5c0-1256.7,3.8-1214.6-120.7-1323.8c-172.4-151.3-411.9-111.1-534.5,86.2l-44.1,70.9L6747-2344c-3.8,768.2,1.9,1149.5,15.3,1203.1c26.8,99.6,122.6,203.1,220.3,237.6C7086.1-867,7139.7-868.9,7231.7-911z" fill="#8f8f8f"/></g></g>
</svg>