<?xml version="1.0" encoding="utf-8"?>
<!-- Svg Vector Icons : http://www.onlinewebfonts.com/icon -->
<!DOCTYPE svg PUBLIC "-//W3C//DTD SVG 1.1//EN" "http://www.w3.org/Graphics/SVG/1.1/DTD/svg11.dtd">
<svg version="1.1" xmlns="http://www.w3.org/2000/svg" xmlns:xlink="http://www.w3.org/1999/xlink" x="0px" y="0px" viewBox="0 0 1000 1000" enable-background="new 0 0 1000 1000" xml:space="preserve">
<metadata> Svg Vector Icons : http://www.onlinewebfonts.com/icon </metadata>
<g><g transform="translate(0.000000,512.000000) scale(0.100000,-0.100000)"><path d="M4078.8,4992.6c-65.1-40.2-11.5,82.3-854-1958.8c-390.6-942.1-842.5-2037.3-1005.2-2431.7C2055,207.7,1698.8-657.8,1425-1322.2c-275.7-662.5-599.3-1447.5-721.9-1742.4C276.2-4089,100-4537,100-4592.5c0-76.6,109.1-185.7,187.6-185.7c30.6,0,702.7,266.2,1489.7,591.7c1411.2,582.1,1706,702.7,3578.6,1476.3C8603.3-1370,9735-900.9,9800.1-866.5c76.6,40.2,113,124.5,95.7,226c-19.1,120.6-187.6,614.6-296.8,876.9C9386.5,740,9156.7,1167,8838.9,1645.7c-486.3,735.3-1049.3,1348-1740.5,1899.4c-746.7,595.5-1639,1083.7-2506.4,1369C4255,5025.2,4153.5,5040.5,4078.8,4992.6z M4534.5,4500.5c829.1-279.6,1725.2-787,2456.6-1393.9c926.7-765.9,1713.7-1828.6,2200-2965.9c97.7-227.8,252.8-652.9,252.8-695c0-21.1-1181.4-522.7-1194.8-507.4c-1.9,3.8-26.8,93.8-53.6,201.1C8004-119.7,7534.9,663.4,6805.4,1458c-869.3,945.9-1895.6,1629.4-2787.9,1859.2c-107.2,26.8-197.2,51.7-201,53.6c-15.3,13.4,484.4,1194.8,505.5,1194.8C4333.5,4565.6,4429.2,4536.9,4534.5,4500.5z M3814.6,2947.7c551.4-128.3,1227.3-480.6,1799.9-938.2c610.8-488.3,1185.2-1104.8,1585.4-1704.1c298.7-444.2,568.7-1047.4,633.8-1415c23-124.5,19.1-135.9-34.5-151.3c-30.6-7.7-49.8,9.6-90,80.4c-118.7,201-371.5,388.7-610.8,451.9c-147.4,38.3-396.3,36.4-528.5-1.9c-342.7-101.5-612.7-371.4-714.2-714.2c-36.4-122.5-40.2-386.8-9.6-511.2c11.5-47.9,17.2-90,11.5-95.7s-289.1-126.4-630-266.1l-618.4-256.6l-23,143.6c-44,275.7-128.3,453.8-300.6,622.3c-203,201-528.5,321.7-796.5,294.9c-628-63.2-1051.2-647.2-909.5-1252.2c36.4-147.4,124.5-317.8,224-432.7c40.2-46,65.1-88.1,53.6-95.7c-28.7-17.2-1213.9-505.5-1217.8-501.7c-1.9,2,15.3,65.1,42.1,137.9c32.5,99.6,46,176.1,46,296.8c0,279.6-82.3,495.9-262.3,691.2L1358-2555.3l417.4,1009.1c227.9,555.3,417.4,1011,421.2,1014.8c1.9,1.9,42.1-17.2,88.1-42.1c275.7-153.2,607-157,915.2-9.6c633.8,300.6,771.6,1127.8,270,1629.4c-126.4,126.4-358.1,264.2-444.2,264.2c-17.2,0-38.3,7.7-44,19.1c-5.7,9.6,132.1,365.7,308.3,788.9c174.2,423.1,325.5,790.8,335.1,813.8C3644.2,2984.1,3651.8,2984.1,3814.6,2947.7z M3035.3,870.2c120.6-61.3,214.5-162.8,273.8-294.9c135.9-298.7,7.7-651-291-798.4c-130.2-63.2-400.2-67-515.1-3.8c-158.9,86.2-164.7,34.5,65.1,589.7c113,273.8,210.6,513.1,218.3,534.2c11.5,28.7,26.8,34.5,90,24.9C2918.5,916.2,2989.3,893.2,3035.3,870.2z M7088.8-1159.4c118.7-59.4,214.5-137.9,254.7-208.7c34.5-59.3,34.5-59.3-9.6-76.6c-24.9-9.6-275.7-113-559.1-231.7c-283.4-116.8-518.9-206.8-524.6-201c-5.7,5.7-15.3,61.3-19.1,124.5c-19.2,271.9,149.3,522.7,417.4,620.4C6769-1088.6,6975.8-1102,7088.8-1159.4z M3784-1957.9c122.5-44,268.1-176.1,331.3-300.6c91.9-178.1,80.4-478.7-19.2-522.7c-23-11.5-203-86.2-402.1-166.6l-358.1-149.4l-84.2,49.8c-105.3,61.3-176.2,145.5-239.3,279.6c-139.8,302.5,19.1,679.7,337,804.2C3468-1915.7,3661.4-1913.8,3784-1957.9z M1298.6-3187.1c95.7-323.6-118.7-687.4-450-758.2c-51.7-11.5-63.2-7.7-55.5,11.5c40.2,99.6,384.9,930.6,392.5,942C1202.9-2965,1266.1-3076.1,1298.6-3187.1z" fill="#8f8f8f"/><path d="M4969.2,1322.1c-524.6-128.3-871.2-664.4-764-1179.5c93.8-448,417.4-754.4,873.1-825.2c396.3-61.3,855.9,180,1030.1,540c206.8,423.1,137.9,857.8-187.6,1187.1C5670,1297.2,5308.1,1404.4,4969.2,1322.1z M5352.1,918.1c281.5-72.8,463.4-308.3,461.5-595.5c-1.9-333.2-245.1-582.1-585.9-597.4c-126.4-7.7-160.8-1.9-258.5,42.1c-229.8,105.3-369.5,315.9-369.5,551.4c0,294.9,176.2,526.6,457.6,601.2C5176,952.5,5223.8,952.5,5352.1,918.1z" fill="#8f8f8f"/></g></g>
</svg>